# xmcd
#
# Track frame offsets: 
#        187
#        21367
#        45900
#        63180
#        82805
#        107227
#        127595
#        149660
#        172160
#        191997
#        211850
#        229780
#        249467
#        271090
#        287407
#        306810
#
# Disc length: 4378 seconds
#
# Revision: 1
# Processed by: cddbd v1.5.2PL0 Copyright (c) Steve Scherf et al.
# Submitted via: ExactAudioCopy v1.0b3
#
DISCID=da111810
DTITLE=堀内孝雄 - <ザ・ベスト>影法師
DYEAR=1993
DGENRE=Blues
TTITLE0=影法師
TTITLE1=都会の天使たち
TTITLE2=恋歌綴り
TTITLE3=ガキの頃のように
TTITLE4=ほほえみを花束にして
TTITLE5=冗談じゃねえ
TTITLE6=青春追えば
TTITLE7=遠き日の少年
TTITLE8=波の調べに
TTITLE9=愛しき日々
TTITLE10=泣かせて
TTITLE11=憧れ遊び
TTITLE12=あなたが美しいのは
TTITLE13=海を抱く時
TTITLE14=クラシックを聴きに行った
TTITLE15=遥かな轍
EXTD=YEAR: 1993
EXTT0=
EXTT1=
EXTT2=
EXTT3=
EXTT4=
EXTT5=
EXTT6=
EXTT7=
EXTT8=
EXTT9=
EXTT10=
EXTT11=
EXTT12=
EXTT13=
EXTT14=
EXTT15=
PLAYORDER=
